<svg width="24" height="14" viewBox="0 0 24 14" fill="none" xmlns="http://www.w3.org/2000/svg">
<path d="M1.14235 7.92082L20.0074 7.92894L16.4821 11.4623C16.3797 11.5622 16.2982 11.6816 16.2424 11.8134C16.1866 11.9452 16.1576 12.0868 16.1572 12.2299C16.1602 12.4418 16.2257 12.6481 16.3454 12.8229C16.4651 12.9977 16.6338 13.1333 16.8303 13.2127C17.0267 13.292 17.2422 13.3116 17.4498 13.269C17.6574 13.2264 17.8477 13.1235 17.997 12.9732L23.3743 7.60403C23.4744 7.50407 23.5538 7.38537 23.6079 7.2547C23.6621 7.12404 23.69 6.98397 23.69 6.84252C23.69 6.70107 23.6621 6.56101 23.6079 6.43035C23.5538 6.29968 23.4744 6.18097 23.3743 6.08102L17.997 0.711886C16.9817 -0.340009 15.4262 1.22768 16.4821 2.2349L20.0277 5.78048L1.14235 5.77235C0.995721 5.76333 0.848801 5.78443 0.710635 5.83433C0.572468 5.88424 0.445982 5.9619 0.338964 6.06254C0.231947 6.16317 0.146664 6.28465 0.0883687 6.41949C0.0300734 6.55434 -2.88116e-07 6.69968 -2.81695e-07 6.84659C-2.75274e-07 6.99349 0.0300735 7.13884 0.0883687 7.27368C0.146664 7.40852 0.231947 7.53 0.338964 7.63064C0.445982 7.73127 0.572469 7.80893 0.710635 7.85884C0.848801 7.90875 0.995721 7.92984 1.14235 7.92082Z" fill="#FFA500"/>
</svg>
