<svg width="37" height="36" viewBox="0 0 37 36" fill="none" xmlns="http://www.w3.org/2000/svg">
<path d="M34.5818 15.5933C34.4479 11.5064 32.7593 7.62471 29.8607 4.74051C26.8039 1.68318 22.7414 0 18.4221 0C9.69838 0 2.57029 6.94361 2.26303 15.5933C1.59037 15.8913 1.01857 16.3779 0.616897 16.9943C0.215228 17.6107 0.000940393 18.3303 0 19.066V23.3324C0.00108857 24.3399 0.401786 25.3058 1.11417 26.0182C1.82656 26.7305 2.79246 27.1312 3.79992 27.1323C4.45177 27.1315 5.07669 26.8723 5.53761 26.4113C5.99853 25.9504 6.25782 25.3255 6.25859 24.6737V17.7242C6.25859 16.4511 5.28218 15.413 4.0408 15.2896C4.49904 7.75377 10.7723 1.76249 18.4221 1.76249C22.2714 1.76249 25.8909 3.26295 28.6152 5.98717C31.1167 8.48873 32.5808 11.7493 32.8011 15.2902C31.5609 15.4147 30.5862 16.4522 30.5862 17.7242V24.6731C30.5862 25.9567 31.5779 27.0013 32.834 27.11V28.866C32.8329 29.8169 32.4546 30.7285 31.7822 31.4008C31.1098 32.0731 30.1982 32.4512 29.2473 32.4521H26.5912C26.4122 31.93 26.0741 31.4772 25.6245 31.157C25.1749 30.8369 24.6363 30.6657 24.0844 30.6673H21.3467C20.9536 30.6673 20.5765 30.7507 20.231 30.9117C19.7684 31.1254 19.3767 31.4669 19.1018 31.896C18.827 32.3251 18.6807 32.8238 18.68 33.3333C18.68 34.0466 18.9579 34.7163 19.4614 35.2174C19.7082 35.4662 20.0019 35.6635 20.3255 35.7978C20.6492 35.9322 20.9963 36.0009 21.3467 36H24.0844C25.2194 36 26.2199 35.2662 26.593 34.2146H29.2473C32.1971 34.2146 34.5965 31.8153 34.5965 28.866V26.7963C35.2651 26.4966 35.833 26.0102 36.2317 25.3955C36.6305 24.7808 36.8432 24.064 36.8442 23.3312V19.0648C36.8442 17.5174 35.9124 16.1849 34.5818 15.5933ZM4.49552 17.7242V24.6731C4.49552 25.0567 4.18356 25.3693 3.79934 25.3693C3.25917 25.3686 2.7413 25.1538 2.35934 24.7718C1.97738 24.3899 1.76252 23.872 1.7619 23.3318V19.0654C1.76252 18.5252 1.97738 18.0074 2.35934 17.6254C2.7413 17.2435 3.25917 17.0286 3.79934 17.028C4.18356 17.028 4.49552 17.3405 4.49552 17.7242ZM24.9686 33.5225C24.9248 33.7248 24.8132 33.9062 24.6523 34.0364C24.4914 34.1666 24.2908 34.238 24.0838 34.2387H21.3461C21.1052 34.2387 20.879 34.1447 20.7063 33.972C20.6222 33.8885 20.5556 33.7892 20.5102 33.6798C20.4648 33.5703 20.4416 33.453 20.4419 33.3345C20.4425 33.095 20.538 32.8654 20.7075 32.6961C20.8769 32.5267 21.1065 32.4314 21.3461 32.431H24.0838C24.3247 32.431 24.5509 32.5244 24.723 32.6971C24.8934 32.8669 24.9874 33.0937 24.9874 33.3345C24.988 33.3991 24.9809 33.4638 24.9686 33.5225ZM35.0817 23.3318C35.0811 23.872 34.8662 24.3899 34.4843 24.7718C34.1023 25.1538 33.5845 25.3686 33.0443 25.3693C32.8597 25.3691 32.6827 25.2957 32.5522 25.1652C32.4217 25.0346 32.3483 24.8577 32.3481 24.6731V17.7242C32.3481 17.3405 32.6601 17.028 33.0443 17.028C33.5845 17.0286 34.1023 17.2435 34.4843 17.6254C34.8662 18.0074 35.0811 18.5252 35.0817 19.0654V23.3318Z" fill="#FFA500"/>
<path d="M24.1285 23.6355C25.1185 23.6344 26.0677 23.2406 26.7677 22.5406C27.4678 21.8406 27.8615 20.8914 27.8626 19.9014V12.2927C27.8626 11.2975 27.4737 10.3599 26.7675 9.65369C26.0614 8.94752 25.1243 8.55859 24.1285 8.55859H12.7158C11.7258 8.55968 10.7766 8.95345 10.0766 9.6535C9.37654 10.3535 8.98278 11.3027 8.98169 12.2927V19.9014C8.98278 20.8914 9.37654 21.8406 10.0766 22.5406C10.7766 23.2406 11.7258 23.6344 12.7158 23.6355H12.7857V25.6071C12.7846 25.8479 12.831 26.0865 12.9224 26.3092C13.0138 26.532 13.1483 26.7344 13.3182 26.905C13.4881 27.0756 13.6901 27.2109 13.9124 27.3031C14.1348 27.3953 14.3733 27.4427 14.614 27.4425C14.8546 27.443 15.0928 27.395 15.3145 27.3014C15.5361 27.2079 15.7367 27.0706 15.9042 26.8979L19.1841 23.6355H24.1285ZM18.2001 22.1292L14.6504 25.6594C14.6346 25.6759 14.6228 25.6882 14.5893 25.6735C14.5488 25.6571 14.5488 25.6306 14.5488 25.6071V22.7543C14.5488 22.5205 14.456 22.2964 14.2907 22.1311C14.1254 21.9659 13.9013 21.873 13.6676 21.873H12.7164C12.1937 21.8724 11.6925 21.6645 11.3229 21.2948C10.9533 20.9252 10.7454 20.4241 10.7448 19.9014V12.2927C10.7454 11.77 10.9533 11.2689 11.3229 10.8992C11.6925 10.5296 12.1937 10.3217 12.7164 10.3211H24.1291C24.6543 10.3211 25.1484 10.5267 25.522 10.8998C25.8957 11.2734 26.1007 11.7681 26.1007 12.2927V19.9014C26.1001 20.4241 25.8922 20.9252 25.5226 21.2948C25.1529 21.6645 24.6518 21.8724 24.1291 21.873H18.8217C18.5884 21.873 18.3652 21.9653 18.2001 22.1292Z" fill="#FFA500"/>
<path d="M14.1409 14.9377C13.4242 14.9377 12.8408 15.5217 12.8408 16.2379C12.8408 16.954 13.4248 17.538 14.1409 17.538C14.8583 17.538 15.4423 16.954 15.4423 16.2379C15.4423 15.5217 14.8589 14.9377 14.1409 14.9377ZM18.4214 14.9377C17.7047 14.9377 17.1213 15.5217 17.1213 16.2379C17.1213 16.954 17.7053 17.538 18.4214 17.538C19.1394 17.538 19.7227 16.954 19.7227 16.2379C19.7227 15.5217 19.1394 14.9377 18.4214 14.9377ZM22.7019 14.9377C21.9852 14.9377 21.4018 15.5217 21.4018 16.2379C21.4018 16.954 21.9858 17.538 22.7019 17.538C23.4193 17.538 24.0032 16.954 24.0032 16.2379C24.0032 15.5217 23.4193 14.9377 22.7019 14.9377Z" fill="#FFA500"/>
</svg>
