<svg width="36" height="36" viewBox="0 0 36 36" fill="none" xmlns="http://www.w3.org/2000/svg">
<path d="M5.20312 19.3789C5.38797 19.3789 5.56945 19.3044 5.70023 19.1737C5.8316 19.0412 5.90559 18.8623 5.90625 18.6758C5.90625 18.4909 5.83101 18.3095 5.70023 18.1787C5.56945 18.0479 5.38797 17.9727 5.20312 17.9727C5.01827 17.9727 4.8368 18.0479 4.70602 18.1787C4.57466 18.3108 4.50065 18.4894 4.5 18.6758C4.5 18.8615 4.57523 19.0428 4.70602 19.1737C4.83828 19.3049 5.01688 19.3786 5.20312 19.3789Z" fill="#FFA500"/>
<path d="M35.6371 9.65044L29.2109 6.09777C28.8712 5.90962 28.4432 6.03323 28.2554 6.37297C28.0675 6.71272 28.1909 7.14064 28.5306 7.32852L34.5937 10.6804V34.5938H31.4999V12.5157C31.4999 12.1273 31.1851 11.8125 30.7968 11.8125H5.20311C4.81478 11.8125 4.49999 12.1273 4.49999 12.5157V15.8635C4.49999 16.2519 4.81478 16.5666 5.20311 16.5666C5.59145 16.5666 5.90624 16.2519 5.90624 15.8635V13.2188H30.0937V34.5938H27.1496V27.5625C27.1496 26.7872 26.5187 26.1563 25.7434 26.1563H22.9309V19.125C22.9309 18.3497 22.3 17.7188 21.5247 17.7188H14.4934C13.7178 17.7188 13.0872 18.3497 13.0872 19.125V26.1563H10.2656C9.49027 26.1563 8.85936 26.7872 8.85936 27.5625V34.5938H5.90624V21.4884C5.90624 21.1001 5.59145 20.7853 5.20311 20.7853C4.81478 20.7853 4.49999 21.1001 4.49999 21.4884V34.5938H1.40625V10.6804L18 1.50659L23.6077 4.60694C23.9474 4.79474 24.3753 4.67149 24.5632 4.33167C24.7511 3.99185 24.6277 3.56407 24.288 3.37612L18.3403 0.0879633C18.2361 0.0302692 18.119 0 18 0C17.8809 0 17.7638 0.0302692 17.6597 0.0879633L0.362812 9.65044C0.252862 9.7112 0.161211 9.80032 0.0974009 9.90852C0.0335911 10.0167 -4.3306e-05 10.1401 4.18469e-08 10.2657V35.2969C4.18469e-08 35.6852 0.314789 36 0.703124 36H35.2968C35.6851 36 35.9999 35.6852 35.9999 35.2969V10.2657C36 10.1401 35.9663 10.0167 35.9025 9.90852C35.8387 9.80032 35.7471 9.7112 35.6371 9.65044ZM21.5247 27.5625H22.9309V28.9688H21.5247V27.5625ZM18.7031 19.125V20.5313H17.2968V19.125H18.7031ZM14.4934 19.125H15.8906V21.2344C15.8906 21.6227 16.2054 21.9375 16.5937 21.9375H19.4062C19.7945 21.9375 20.1093 21.6227 20.1093 21.2344V19.125H21.5247L21.5255 26.1563H14.4934V19.125ZM14.4934 27.5625V28.9688H13.0872V27.5625H14.4934ZM10.2656 34.5938V27.5625H11.6809V29.6719C11.6809 30.0602 11.9956 30.375 12.384 30.375H15.1965C15.5847 30.375 15.8997 30.0602 15.8997 29.6719V27.5625H17.2968L17.2977 34.5938H17.2968H10.2656ZM18.7122 34.5938V27.5625H20.1184V29.6719C20.1184 30.0602 20.4331 30.375 20.8215 30.375H23.634C24.0221 30.375 24.3371 30.0602 24.3371 29.6719V27.5625H25.7434L25.7442 34.5938H25.7434H18.7122Z" fill="#FFA500"/>
<path d="M26.4095 6.05538C26.5943 6.05538 26.7756 5.98014 26.9066 5.84936C27.0379 5.71716 27.1119 5.53859 27.1126 5.35226C27.1126 5.16712 27.0374 4.98593 26.9066 4.85515C26.7744 4.72384 26.5958 4.64984 26.4095 4.64913C26.2244 4.64913 26.0431 4.72437 25.9124 4.85515C25.7817 4.98593 25.7064 5.16712 25.7064 5.35226C25.7064 5.53711 25.7816 5.71837 25.9124 5.84936C26.0445 5.98076 26.2231 6.05478 26.4095 6.05538ZM15.0469 7.17187C15.0469 8.8003 16.3716 10.125 18 10.125C19.6284 10.125 20.9531 8.8003 20.9531 7.17187C20.9531 5.54343 19.6284 4.21875 18 4.21875C16.3716 4.21875 15.0469 5.54343 15.0469 7.17187ZM19.5469 7.17187C19.5469 8.02469 18.8531 8.71874 18 8.71874C17.1469 8.71874 16.4531 8.02469 16.4531 7.17187C16.4531 6.31877 17.1469 5.625 18 5.625C18.8531 5.625 19.5469 6.31877 19.5469 7.17187Z" fill="#FFA500"/>
</svg>
