<svg width="40" height="40" viewBox="0 0 40 40" fill="none" xmlns="http://www.w3.org/2000/svg">
<path d="M39.5948 8.65075L24.016 0.0963644C23.9008 0.0331432 23.7715 0 23.64 0C23.5086 0 23.3793 0.0331432 23.264 0.0963644L17.3922 3.32059C17.2668 3.35338 17.1516 3.41672 17.0568 3.50496L7.68574 8.65075C7.563 8.71809 7.46063 8.81719 7.38933 8.93767C7.31804 9.05816 7.28045 9.19559 7.28051 9.33559V19.6817C5.69973 20.1761 4.25105 21.0479 3.04652 22.2528C-0.0930164 25.3922 -0.893642 30.1804 1.05464 34.1675C1.24386 34.555 1.71167 34.7159 2.09925 34.5264C2.48714 34.3369 2.64769 33.869 2.45847 33.4815C0.803157 30.0937 1.48347 26.0254 4.15129 23.3576C5.81965 21.6891 8.0377 20.7702 10.397 20.7702C12.7563 20.7702 14.9743 21.6891 16.6427 23.3576C18.3108 25.0256 19.2297 27.2437 19.2297 29.603C19.2297 31.9623 18.3108 34.1803 16.6424 35.8487C13.9746 38.5166 9.90629 39.1968 6.51855 37.5415C6.13098 37.352 5.66308 37.5128 5.47387 37.9004C5.28441 38.2883 5.44496 38.7561 5.83277 38.9453C7.25172 39.6396 8.81059 40.0003 10.3903 40C13.089 39.9997 15.7516 38.9492 17.7475 36.9534C18.6627 36.0382 19.386 34.9823 19.8977 33.8345L23.2641 35.683C23.3813 35.7473 23.5107 35.7794 23.6401 35.7794C23.7696 35.7794 23.8992 35.7474 24.0161 35.683L39.5947 27.1289C39.7174 27.0615 39.8197 26.9624 39.891 26.8419C39.9623 26.7215 40 26.584 40 26.444V21.0147C40 20.5832 39.6502 20.2334 39.2187 20.2334C38.7873 20.2334 38.4375 20.5832 38.4375 21.0147V25.9817L24.4238 33.6768V18.3508L29.0488 15.8111V19.8369C29.0488 19.9395 29.069 20.0411 29.1082 20.136C29.1474 20.2308 29.205 20.3169 29.2775 20.3895C29.3501 20.462 29.4362 20.5195 29.531 20.5588C29.6258 20.598 29.7275 20.6182 29.8301 20.6182C29.9594 20.6182 30.0891 20.5861 30.2066 20.5215L33.5449 18.684C33.6674 18.6166 33.7696 18.5175 33.8407 18.3972C33.9118 18.2768 33.9493 18.1396 33.9493 17.9997V13.12L38.4375 10.6558V14.765C38.4375 15.1965 38.7873 15.5462 39.2187 15.5462C39.6502 15.5462 40 15.1965 40 14.765V9.33559C40 9.19559 39.9624 9.05816 39.8911 8.93768C39.8198 8.8172 39.7175 8.7181 39.5948 8.65075ZM23.6401 1.6723L37.5955 9.33559L33.1933 11.7529L19.2379 4.08965L23.6401 1.6723ZM23.6401 16.9986L9.68473 9.33559L14.2483 6.8295L28.204 14.4925L23.6401 16.9986ZM29.8269 13.6014L15.8715 5.9384L17.6147 4.98106L31.5705 12.644L29.8269 13.6014ZM17.7475 22.2528C15.784 20.2893 13.1735 19.208 10.397 19.208C9.87176 19.208 9.35301 19.2468 8.84309 19.3228V10.6558L22.8616 18.3535V33.6795L20.4284 32.3434C20.668 31.4615 20.7919 30.5417 20.7919 29.603C20.7919 26.8264 19.7107 24.216 17.7475 22.2528ZM32.3871 17.5381L30.6113 18.5156V14.9533L32.3871 13.9783V17.5381Z" fill="#FFA500"/>
<path d="M39.2186 17.1052C39.0116 17.1059 38.8131 17.1882 38.6663 17.3341C38.5203 17.481 38.438 17.6794 38.4374 17.8865C38.4381 18.0935 38.5203 18.2918 38.6663 18.4386C38.8116 18.5841 39.0132 18.6675 39.2186 18.6675C39.424 18.6675 39.6257 18.5841 39.771 18.4386C39.9169 18.2918 39.9992 18.0935 39.9999 17.8865C39.9999 17.6809 39.9163 17.4794 39.771 17.3341C39.6241 17.1882 39.4257 17.1059 39.2186 17.1052ZM7.76992 30.3847C7.8725 30.3848 7.9741 30.3647 8.06888 30.3255C8.16367 30.2862 8.24978 30.2287 8.32226 30.1561C8.6275 29.8509 8.6275 29.3563 8.32226 29.0511L7.78125 28.5097H12.3985C13.5185 28.5097 14.4298 29.4209 14.4298 30.5409C14.4298 31.6609 13.5185 32.5722 12.3985 32.5722H9.66258C9.23109 32.5722 8.88133 32.922 8.88133 33.3534C8.88133 33.7847 9.23109 34.1344 9.66258 34.1344H12.3985C14.38 34.1344 15.9923 32.5224 15.9923 30.5409C15.9923 28.5595 14.38 26.9475 12.3985 26.9475H7.78125L8.32226 26.4061C8.6275 26.1009 8.6275 25.6063 8.32226 25.3011C8.01742 24.9962 7.52273 24.9962 7.21757 25.3011L5.34257 27.1761C5.03765 27.4813 5.03765 27.9759 5.34257 28.2811L7.21757 30.1558C7.29002 30.2285 7.37611 30.2861 7.4709 30.3254C7.56569 30.3646 7.66731 30.3848 7.76992 30.3847ZM3.59937 37.1841C3.48559 37.1842 3.37317 37.1594 3.27003 37.1113C3.1669 37.0633 3.07557 36.9932 3.00249 36.906L3.00093 36.9042C2.72319 36.574 2.76593 36.0814 3.09616 35.8037C3.42632 35.5257 3.91921 35.5685 4.19694 35.8986C4.47429 36.2291 4.43249 36.7226 4.10234 37.0003C3.96162 37.119 3.78345 37.1841 3.59937 37.184V37.1841Z" fill="#FFA500"/>
</svg>
