<svg width="15" height="15" viewBox="0 0 15 15" fill="none" xmlns="http://www.w3.org/2000/svg">
<path d="M6.55992 3.75649L4.3611 1.21839C4.10761 0.925909 3.64289 0.927209 3.34846 1.22229L1.54027 3.03373C1.0021 3.57255 0.84806 4.37265 1.15939 5.01416C3.01933 8.86516 6.12512 11.9753 9.97351 13.8406C10.6144 14.152 11.4138 13.9979 11.952 13.4591L13.7771 11.6308C14.0728 11.335 14.0735 10.8677 13.7784 10.6142L11.2305 8.42711C10.9641 8.19832 10.55 8.22822 10.2829 8.496L9.39635 9.38385C9.35096 9.43142 9.29122 9.46278 9.22629 9.47311C9.16136 9.48344 9.09483 9.47218 9.03692 9.44105C7.5878 8.60656 6.38572 7.40292 5.55313 5.95271C5.52195 5.8947 5.51066 5.82806 5.52099 5.76302C5.53132 5.69798 5.5627 5.63812 5.61032 5.59263L6.49427 4.70803C6.76206 4.43895 6.7913 4.02297 6.55992 3.75584V3.75649Z" stroke="black" stroke-width="1.5" stroke-linecap="round" stroke-linejoin="round"/>
</svg>
