<svg width="336" height="115" viewBox="0 0 336 115" fill="none" xmlns="http://www.w3.org/2000/svg">
<path d="M62.9309 1.848V20.344H23.4909V41.424H53.9549V59.104H23.4909V98H0.234938V1.848H62.9309ZM94.8676 74.744V98H70.7956V74.744H94.8676ZM166.584 80.456H130.544L124.56 98H100.08L135.304 2.528H162.096L197.32 98H172.568L166.584 80.456ZM160.6 62.776L148.632 27.416L136.528 62.776H160.6ZM226.352 74.744V98H202.28V74.744H226.352ZM307.181 114.864L294.669 97.864C291.042 98.5893 287.551 98.952 284.197 98.952C275.221 98.952 267.015 96.8667 259.581 92.696C252.237 88.4347 246.389 82.5413 242.037 75.016C237.775 67.4907 235.645 59.0133 235.645 49.584C235.645 40.1547 237.775 31.7227 242.037 24.288C246.389 16.7627 252.237 10.9147 259.581 6.744C267.015 2.48266 275.221 0.351993 284.197 0.351993C293.263 0.351993 301.469 2.48266 308.813 6.744C316.247 10.9147 322.095 16.7627 326.357 24.288C330.618 31.7227 332.749 40.1547 332.749 49.584C332.749 57.9253 331.026 65.5413 327.581 72.432C324.226 79.3227 319.557 84.9893 313.573 89.432L335.061 114.864H307.181ZM259.309 49.584C259.309 58.016 261.53 64.7253 265.973 69.712C270.506 74.6987 276.581 77.192 284.197 77.192C291.722 77.192 297.751 74.6987 302.285 69.712C306.818 64.7253 309.085 58.016 309.085 49.584C309.085 41.152 306.818 34.4427 302.285 29.456C297.842 24.4693 291.813 21.976 284.197 21.976C276.581 21.976 270.506 24.4693 265.973 29.456C261.53 34.352 259.309 41.0613 259.309 49.584Z" fill="#F5F5F5"/>
</svg>
