<svg width="17" height="17" viewBox="0 0 17 17" fill="none" xmlns="http://www.w3.org/2000/svg">
<path d="M8.5 1C4.35526 1 1 4.35526 1 8.5C1 12.6447 4.35526 16 8.5 16C12.6447 16 16 12.6447 16 8.5C16 4.35526 12.6447 1 8.5 1ZM8.5 15.2105C4.78947 15.2105 1.78947 12.2105 1.78947 8.5C1.78947 4.78947 4.78947 1.78947 8.5 1.78947C12.2105 1.78947 15.2105 4.78947 15.2105 8.5C15.2105 12.2105 12.2105 15.2105 8.5 15.2105ZM13.0197 5.95395C12.8618 5.79605 12.625 5.79605 12.4671 5.95395L7.43421 11.0066L5.32237 8.89474C5.16447 8.73684 4.90789 8.73684 4.76974 8.89474C4.61184 9.05263 4.61184 9.30921 4.76974 9.44737L7.1579 11.8355C7.23684 11.9145 7.33553 11.9539 7.43421 11.9539C7.53289 11.9539 7.63158 11.9145 7.71053 11.8355L13.0197 6.50658C13.1776 6.34868 13.1776 6.11184 13.0197 5.95395Z" fill="black" stroke="black" stroke-width="0.7"/>
</svg>
