<svg xmlns="http://www.w3.org/2000/svg" width="168.456" height="100.208" viewBox="0 0 168.456 100.208">
  <g id="Untitled-1" transform="translate(-52.5 -48.2)">
    <g id="Group_38" data-name="Group 38" transform="translate(104.279 48.2)">
      <g id="Group_36" data-name="Group 36" transform="translate(11.362 18.007)">
        <g id="Group_34" data-name="Group 34" transform="translate(24.644 7.666)">
          <path id="Path_14" data-name="Path 14" d="M548.091,343.538a28.239,28.239,0,0,0,4.48-2.786c.659-.489,1.3-.979,1.957-1.43.4-.263.4-.508.132-.866a59,59,0,0,1-3.67-5.722c-.245-.433-.414-.546-.885-.226a46.246,46.246,0,0,1-6.795,3.821c-.433.207-.452.376-.226.734,1.261,2.108,2.56,4.216,3.953,6.23A.686.686,0,0,0,548.091,343.538Z" transform="translate(-538.416 -304.52)" fill="#fff"/>
          <path id="Path_15" data-name="Path 15" d="M575.066,262.874c-1.016-2-2.014-3.99-2.974-6.023-.245-.508-.433-.546-.922-.32-1.92.9-3.858,1.75-5.8,2.616a1.056,1.056,0,0,0-.32,1.543c1.129,2.24,2.259,4.5,3.388,6.738.471.941.471.96,1.3.376a57.355,57.355,0,0,0,5.195-4.122A.541.541,0,0,0,575.066,262.874Z" transform="translate(-556.206 -242.885)" fill="#fff"/>
          <path id="Path_16" data-name="Path 16" d="M593.394,215.592c1.581-.64,3.181-1.223,4.781-1.788.376-.132.4-.245.245-.583-.489-1.186-.941-2.39-1.412-3.595-.075-.207-.132-.358-.376-.4a28.015,28.015,0,0,0-6.531-.527c.791,2.259,1.619,4.423,2.541,6.55C592.829,215.63,592.923,215.78,593.394,215.592Z" transform="translate(-576.699 -204.148)" fill="#fff"/>
          <path id="Path_17" data-name="Path 17" d="M622.089,333.1a26.586,26.586,0,0,1-4.178,5.232c-.508.489-.659.866-.132,1.242a12.432,12.432,0,0,0,1.845,1.769c.471.358.791.32,1.186-.151a28.261,28.261,0,0,0,3.934-6.117c.188-.414.264-.64-.226-.922a4.817,4.817,0,0,1-1.3-1.167C622.692,332.173,622.485,332.475,622.089,333.1Z" transform="translate(-598.901 -304.656)" fill="#fff"/>
          <path id="Path_18" data-name="Path 18" d="M629.327,271.416l2.654,4.178c.245.4.376.264.546-.056a26.544,26.544,0,0,0,2.484-6.55.705.705,0,0,0-.056-.64c-.6-.866-1.167-1.769-1.807-2.748a28.849,28.849,0,0,1-3.746,5.025A.55.55,0,0,0,629.327,271.416Z" transform="translate(-608.434 -250.354)" fill="#fff"/>
          <path id="Path_19" data-name="Path 19" d="M600.42,304.95c-.922-1.374-1.826-2.748-2.635-4.178-.358-.64-.583-.452-.96-.113-.885.809-1.769,1.619-2.673,2.428-.885.678-1.75,1.374-2.635,2.07-.226.169-.339.32-.169.64,1.129,2,2.428,3.877,3.689,5.8.188.282.4.414.659.113a22.96,22.96,0,0,0,2.974-3.369A20.96,20.96,0,0,0,600.42,306,.8.8,0,0,0,600.42,304.95Zm-7.171-1a.412.412,0,0,1,.188-.169A1.694,1.694,0,0,1,593.249,303.952Z" transform="translate(-577.646 -278.561)" fill="#fff"/>
          <path id="Path_20" data-name="Path 20" d="M581.3,377.137a5.372,5.372,0,0,1,.715-.583c.527-.376.565-.678-.056-1.035a6.884,6.884,0,0,1-1.939-1.826c-.32-.414-.583-.565-1-.151a30.8,30.8,0,0,1-3.915,2.88c-.376.264-.809.433-1.2.659a6.327,6.327,0,0,1-1.261.7c-.471.151-.471.339-.207.7a13.962,13.962,0,0,0,2.183,2.165c.527.471,1.035.263,1.543-.019a19.889,19.889,0,0,0,2.315-1.318c.527-.376,1.073-.7,1.6-1.073C580.51,377.909,580.886,377.513,581.3,377.137Z" transform="translate(-562.215 -337.78)" fill="#fff"/>
          <path id="Path_21" data-name="Path 21" d="M615.693,244.306a.515.515,0,0,0,.038-.678c-.565-1.092-1.092-2.2-1.638-3.294-.113-.207-.188-.489-.546-.3-1.129.583-2.353.941-3.444,1.637h0c-.452.188-.922.4-1.374.583-.226.094-.358.207-.207.508.922,2.014,1.9,3.99,2.955,5.929.132.226.245.339.489.075a22.771,22.771,0,0,0,3.03-3.557C615.223,244.908,615.449,244.607,615.693,244.306Z" transform="translate(-591.601 -229.549)" fill="#fff"/>
          <path id="Path_22" data-name="Path 22" d="M526.824,402.314a5.748,5.748,0,0,1-1.43.546c-1.035.3-2.033.64-3.087.866-1.129.245-2.277.433-3.407.621a2.246,2.246,0,0,1,.922.828c.828.885,1.638,1.9,3.03,1.769a22.237,22.237,0,0,0,4.724-.866,10.727,10.727,0,0,0,2.842-.941,9.89,9.89,0,0,1-2.616-2.447C527.539,402.371,527.238,402.07,526.824,402.314Z" transform="translate(-518.9 -361.264)" fill="#fff"/>
          <path id="Path_23" data-name="Path 23" d="M650.113,290.5c-.245.508-.471,1.016-.734,1.506a.538.538,0,0,0,0,.678,8.481,8.481,0,0,0,1.6,1.581c.3.226.471.188.6-.188a13.11,13.11,0,0,0,.7-2.409,37.034,37.034,0,0,0,.828-4.066,2.133,2.133,0,0,0-1.318-2.6A27.312,27.312,0,0,1,650.113,290.5Z" transform="translate(-624.722 -266.103)" fill="#fff"/>
          <path id="Path_24" data-name="Path 24" d="M633.242,216.5c.188.565.452.546.922.376.659-.245,1.336-.4,2-.621.188-.056.489.038.527-.264.038-.245-.169-.4-.339-.527A12.4,12.4,0,0,0,632,213.3C632.452,214.486,632.885,215.465,633.242,216.5Z" transform="translate(-610.712 -207.898)" fill="#fff"/>
          <path id="Path_25" data-name="Path 25" d="M642.361,232.162c.508,1.016,1.016,2.033,1.581,3.143a10.566,10.566,0,0,0,1.506-4.2c.075-.7-.113-.809-.734-.527-.678.32-1.374.64-2.052.941C642.342,231.653,642.173,231.8,642.361,232.162Z" transform="translate(-619.06 -221.81)" fill="#fff"/>
          <path id="Path_26" data-name="Path 26" d="M653.653,240.081c-.094.226-.3.433-.132.7a16.505,16.505,0,0,0,1.468,2.259,3.215,3.215,0,0,0,.132-.339,4.777,4.777,0,0,0,.075-.546c.038-.188.075-.376.132-.565a3.823,3.823,0,0,0,.113-.772,8.567,8.567,0,0,0,.075-1,9.707,9.707,0,0,0-.169-1.957,6.87,6.87,0,0,0-.264-1.073,1.372,1.372,0,0,1-.113-.4.715.715,0,0,0-.056-.188c-.019-.019-.169-.132-.169-.113A12.927,12.927,0,0,1,653.653,240.081Z" transform="translate(-628.131 -226.398)" fill="#fff"/>
          <path id="Path_27" data-name="Path 27" d="M627.621,196.941a.568.568,0,0,0,.4.376,15.751,15.751,0,0,1,4.141,2.24A20.048,20.048,0,0,0,627,194.4,14.768,14.768,0,0,0,627.621,196.941Z" transform="translate(-606.654 -192.555)" fill="#fff"/>
          <path id="Path_28" data-name="Path 28" d="M626.21,185.993a24.09,24.09,0,0,1,4.5,4.385A21.438,21.438,0,0,0,626,184.6C625.927,185.108,625.7,185.616,626.21,185.993Z" transform="translate(-605.75 -184.6)" fill="#fff"/>
          <path id="Path_29" data-name="Path 29" d="M665.007,247.145a2.033,2.033,0,0,0,1.167,1.2s.452-2.729-1.374-8.15C664.8,240.181,665.5,245.037,665.007,247.145Z" transform="translate(-637.339 -229.735)" fill="#fff"/>
        </g>
        <g id="Group_35" data-name="Group 35">
          <ellipse id="Ellipse_7" data-name="Ellipse 7" cx="4.894" cy="3.087" rx="4.894" ry="3.087" transform="translate(10.076 14.077) rotate(-15.366)" fill="#fff"/>
          <path id="Path_30" data-name="Path 30" d="M395.765,189.84c-.489-.489-1.449-1.543-1.468-1.562-.075-.094-.941-1.148-1.28-1.619-8.131-11.067-6.23-27.367,4.16-36.326a27.088,27.088,0,0,1,29.532-3.67c.019,0,.019.019.038.019a31.988,31.988,0,0,0-16-.188c-6.174,1.506-14.06,5.289-13.439,12.855.358,4.461,3.821,8.15,7.134,10.823a26.935,26.935,0,0,0,3.444,2.409,11.1,11.1,0,0,0-4.009-.791,13.031,13.031,0,0,0-4.1.169c-7.83,1.788-5.929,12.441-4.009,17.881Z" transform="translate(-387.967 -143.872)" fill="#fff"/>
        </g>
      </g>
      <g id="Group_37" data-name="Group 37" transform="translate(21.608 47.337)">
        <path id="Path_31" data-name="Path 31" d="M493.135,336.674l-1.976,1.675.245,2.6-2.2-1.374-2.39,1.035.621-2.522-1.732-1.939,2.6-.207,1.318-2.24.979,2.409Z" transform="translate(-477.55 -327.301)" fill="#fff"/>
        <path id="Path_32" data-name="Path 32" d="M511.64,300.133l-.376.734.4.734-.809-.132-.583.583-.113-.809-.753-.358.734-.376.113-.809.583.583Z" transform="translate(-496.789 -299.7)" fill="#fff"/>
        <path id="Path_33" data-name="Path 33" d="M450.755,305.939l-1.393,1.638.565,2.089-2-.828-1.807,1.186.151-2.146-1.675-1.355,2.089-.508.772-2.014,1.129,1.826Z" transform="translate(-444.186 -303.191)" fill="#fff"/>
        <path id="Path_34" data-name="Path 34" d="M472.418,383.26l-.828,1.581.847,1.562-1.75-.3-1.242,1.28-.264-1.75-1.581-.772,1.581-.791.245-1.769,1.242,1.261Z" transform="translate(-462.857 -366.753)" fill="#fff"/>
        <path id="Path_35" data-name="Path 35" d="M444.828,356.289l-.4.791.414.791-.885-.151-.621.64-.132-.885-.809-.4.809-.4.113-.885.64.64Z" transform="translate(-442.4 -345.241)" fill="#fff"/>
        <path id="Path_36" data-name="Path 36" d="M527.381,380.121l-.546,1.035.546,1.035L526.233,382l-.809.828-.169-1.148-1.054-.508,1.054-.527.151-1.148.828.828Z" transform="translate(-508.804 -364.48)" fill="#fff"/>
        <path id="Path_37" data-name="Path 37" d="M542.915,312.572l-.659,1.28.678,1.28-1.412-.245-1,1.035-.226-1.43-1.3-.621,1.3-.64.188-1.43,1.016,1.016Z" transform="translate(-520.818 -309.523)" fill="#fff"/>
      </g>
      <path id="Path_38" data-name="Path 38" d="M389.957,60.077l-8.733,8.131a28.936,28.936,0,0,0-41.916,12.554l-.376.113-4.894-2.221v12.2l2.767.019-.038,5.684-3.256-2.033L330.386,96.5l.038-5.684,2.484.019v-12.7L327.6,75.718,351.353,48.2Z" transform="translate(-327.6 -48.2)" fill="#fff"/>
    </g>
    <g id="Group_40" data-name="Group 40" transform="translate(52.5 128.72)">
      <path id="Path_39" data-name="Path 39" d="M60.669,485.25H55.417l-.866,1.9H52.5L57.017,477.1h2.07L63.6,487.151h-2.07Zm-2.616-6.042-1.863,4.273h3.727Z" transform="translate(-52.5 -476.893)" fill="#fff"/>
      <path id="Path_40" data-name="Path 40" d="M123.125,479.917a2.054,2.054,0,0,1-1.3,1.939,2.42,2.42,0,0,1,1.6,2.24c0,2.24-1.675,2.955-3.764,2.955H114.9V477h4.762C121.638,477,123.125,477.9,123.125,479.917Zm-6.362,1.129h2.9c1.186,0,1.581-.508,1.581-1.073,0-.452-.376-1.242-1.581-1.242h-2.9Zm0,4.254h2.9c.772,0,1.882-.264,1.882-1.2,0-.9-1.11-1.374-1.882-1.374h-2.9Z" transform="translate(-103.155 -476.812)" fill="#fff"/>
      <path id="Path_41" data-name="Path 41" d="M176.222,487.07h-2.259l-2.936-3.369H169.2v3.369h-1.9V477c1.6,0,3.181.019,4.781.019a3.332,3.332,0,0,1,3.614,3.331,3,3,0,0,1-2.541,3.162l3.049,3.426v.132Zm-7-8.3v3.219h2.88a1.6,1.6,0,1,0,0-3.2h-2.88Z" transform="translate(-145.692 -476.812)" fill="#fff"/>
      <path id="Path_42" data-name="Path 42" d="M226.733,481.289a5.167,5.167,0,1,1-10.333.019,5.168,5.168,0,1,1,10.333-.019Zm-8.451.038a3.305,3.305,0,1,0,6.606,0,3.315,3.315,0,1,0-6.606,0Z" transform="translate(-185.551 -476)" fill="#fff"/>
      <path id="Path_43" data-name="Path 43" d="M281.469,485.25h-5.251l-.866,1.9H273.3l4.517-10.051h2.07l4.517,10.051h-2.07Zm-2.635-6.042-1.863,4.273H280.7Z" transform="translate(-231.741 -476.893)" fill="#fff"/>
      <path id="Path_44" data-name="Path 44" d="M346.678,481.95a4.769,4.769,0,0,1-5.025,5.12H337.7V477h3.953A4.763,4.763,0,0,1,346.678,481.95Zm-7.1,3.294h2.07a3.219,3.219,0,0,0,0-6.437h-2.07Z" transform="translate(-284.02 -476.812)" fill="#fff"/>
      <path id="Path_45" data-name="Path 45" d="M416.309,477.1v5.759c0,2.974-1.826,4.5-4.348,4.5a4.194,4.194,0,0,1-4.461-4.5V477.1h1.882v5.759a2.463,2.463,0,0,0,2.6,2.767c1.562,0,2.466-1.054,2.466-2.767V477.1Z" transform="translate(-340.682 -476.893)" fill="#fff"/>
      <path id="Path_46" data-name="Path 46" d="M471.356,477h1.9v10.07h-1.186v.019l-5.27-6.814v6.776h-1.9V477h1.543l4.931,6.23V477Z" transform="translate(-387.279 -476.812)" fill="#fff"/>
      <path id="Path_47" data-name="Path 47" d="M518.6,487.07V477h1.882v10.051H518.6Z" transform="translate(-430.871 -476.812)" fill="#fff"/>
      <path id="Path_48" data-name="Path 48" d="M560.675,477h1.9v10.07H561.39v.019l-5.289-6.795v6.776h-1.9V477h1.543l4.931,6.23Z" transform="translate(-459.771 -476.812)" fill="#fff"/>
      <path id="Path_49" data-name="Path 49" d="M615.329,487.151H607.8V477.1h7.529v1.845h-5.647v2.315h5.44v1.769h-5.44v2.277h5.647Z" transform="translate(-503.282 -476.893)" fill="#fff"/>
      <path id="Path_50" data-name="Path 50" d="M658.781,478.732H655.6V477h8.282v1.732H660.7v8.338h-1.9v-8.338Z" transform="translate(-542.085 -476.812)" fill="#fff"/>
      <path id="Path_51" data-name="Path 51" d="M716.2,487.07h-1.6l-1.242-3.162-1.054-3.181-1.054,3.2-1.223,3.124h-1.6L704.7,477h2.127l2.372,7.246L711.645,477h1.242l2.522,7.246,2.3-7.246h2.108Z" transform="translate(-581.944 -476.812)" fill="#fff"/>
      <path id="Path_52" data-name="Path 52" d="M799.133,481.289a5.167,5.167,0,1,1-10.333.019,5.168,5.168,0,1,1,10.333-.019Zm-8.47.038a3.305,3.305,0,1,0,6.606,0,3.315,3.315,0,1,0-6.606,0Z" transform="translate(-650.214 -476)" fill="#fff"/>
      <path id="Path_53" data-name="Path 53" d="M860.022,487.07h-2.259l-2.936-3.369H853v3.369h-1.9V477c1.6,0,3.181.019,4.781.019a3.332,3.332,0,0,1,3.614,3.331,3,3,0,0,1-2.541,3.162L860,486.938v.132Zm-7.021-8.3v3.219h2.88a1.6,1.6,0,1,0,0-3.2H853Z" transform="translate(-700.788 -476.812)" fill="#fff"/>
      <path id="Path_54" data-name="Path 54" d="M910.593,477.056l-4.461,4.818,4.837,5.063v.113h-2.353L904.4,482.59v4.461h-1.9V477h1.9v4.254l3.84-4.254h2.353Z" transform="translate(-742.514 -476.812)" fill="#fff"/>
      <g id="Group_39" data-name="Group 39" transform="translate(19.33 15.66)">
        <path id="Path_55" data-name="Path 55" d="M155.2,559.4h.414l.9,3.463,1.016-3.463h.433l.979,3.463.9-3.463h.414l-1.111,3.953h-.414l-1-3.369-1.016,3.369h-.433Z" transform="translate(-155.2 -559.362)" fill="#fff"/>
        <path id="Path_56" data-name="Path 56" d="M196.657,563.228a2.015,2.015,0,1,1,1.957-2.014A1.924,1.924,0,0,1,196.657,563.228Zm0-.358A1.54,1.54,0,0,0,198.2,561.2a1.549,1.549,0,1,0-1.543,1.675Z" transform="translate(-187.265 -559.2)" fill="#fff"/>
        <path id="Path_57" data-name="Path 57" d="M230.6,559.4c.922,0,1.336.489,1.336,1.148a1.094,1.094,0,0,1-.979,1.129l1.016,1.675h-.471l-.979-1.656H229.8v1.656h-.4V559.4Zm0,.339h-.791v1.638h.791c.64,0,.922-.358.922-.828C231.546,560.04,231.263,559.739,230.6,559.739Z" transform="translate(-215.434 -559.362)" fill="#fff"/>
        <path id="Path_58" data-name="Path 58" d="M257.7,559.4v3.633h1.412v.32H257.3V559.4Z" transform="translate(-238.083 -559.362)" fill="#fff"/>
        <path id="Path_59" data-name="Path 59" d="M283.356,561.3a1.859,1.859,0,0,1-2.089,1.957H280.1V559.3h1.167A1.9,1.9,0,0,1,283.356,561.3Zm-2.089,1.637a1.648,1.648,0,1,0,0-3.294H280.5v3.294Z" transform="translate(-256.591 -559.281)" fill="#fff"/>
        <path id="Path_60" data-name="Path 60" d="M309.8,559.4h.414l.9,3.463,1.016-3.463h.433l.979,3.463.9-3.463h.414l-1.11,3.953h-.433l-1-3.369-1.016,3.369h-.433Z" transform="translate(-280.701 -559.362)" fill="#fff"/>
        <path id="Path_61" data-name="Path 61" d="M350.3,559.4h.4v3.953h-.4Z" transform="translate(-313.578 -559.362)" fill="#fff"/>
        <path id="Path_62" data-name="Path 62" d="M370.656,561.3a1.859,1.859,0,0,1-2.089,1.957H367.4V559.3h1.167A1.9,1.9,0,0,1,370.656,561.3Zm-2.089,1.637a1.648,1.648,0,1,0,0-3.294H367.8v3.294Z" transform="translate(-327.46 -559.281)" fill="#fff"/>
        <path id="Path_63" data-name="Path 63" d="M400.852,559.558H399.2v1.468h1.487v.32H399.2v1.487h1.656v.32H398.8V559.2h2.052Z" transform="translate(-352.95 -559.2)" fill="#fff"/>
        <path id="Path_64" data-name="Path 64" d="M442.3,559.4h.4v2.484c0,.809.433,1.148,1.035,1.148.621,0,1.035-.339,1.035-1.148V559.4h.4v2.484a1.432,1.432,0,1,1-2.861,0Z" transform="translate(-388.262 -559.362)" fill="#fff"/>
        <path id="Path_65" data-name="Path 65" d="M475.374,559.4v3.953h-.4L472.8,560.04v3.313h-.4V559.4h.4l2.183,3.313V559.4Z" transform="translate(-412.697 -559.362)" fill="#fff"/>
        <path id="Path_66" data-name="Path 66" d="M503.2,559.4h.4v3.953h-.4Z" transform="translate(-437.7 -559.362)" fill="#fff"/>
        <path id="Path_67" data-name="Path 67" d="M539.841,562.655h-1.788l-.339.941H537.3l1.43-3.9h.452l1.43,3.9H540.2Zm-.9-2.466-.772,2.127h1.562Z" transform="translate(-465.382 -559.606)" fill="#fff"/>
        <path id="Path_68" data-name="Path 68" d="M566.9,559.4h2.6v.32h-1.092v3.614h-.4V559.72h-1.092v-.32Z" transform="translate(-489.41 -559.362)" fill="#fff"/>
        <path id="Path_69" data-name="Path 69" d="M613.557,563.228a2.015,2.015,0,1,1,1.957-2.014A1.924,1.924,0,0,1,613.557,563.228Zm0-.358A1.54,1.54,0,0,0,615.1,561.2a1.549,1.549,0,1,0-1.543,1.675Z" transform="translate(-525.697 -559.2)" fill="#fff"/>
        <path id="Path_70" data-name="Path 70" d="M649.374,559.4v3.953h-.4L646.8,560.04v3.313h-.4V559.4h.4l2.183,3.313V559.4Z" transform="translate(-553.947 -559.362)" fill="#fff"/>
        <path id="Path_71" data-name="Path 71" d="M679.252,559.558H677.6v1.468h1.487v.32H677.6v1.487h1.656v.32H677.2V559.2h2.052Z" transform="translate(-578.95 -559.2)" fill="#fff"/>
        <path id="Path_72" data-name="Path 72" d="M722.086,561.578H721.3v1.675h-.4V559.3h1.186c.922,0,1.336.489,1.336,1.129C723.422,561.088,723.008,561.578,722.086,561.578Zm0-.339c.659,0,.922-.3.922-.79,0-.508-.263-.809-.922-.809H721.3v1.6Z" transform="translate(-614.425 -559.281)" fill="#fff"/>
        <path id="Path_73" data-name="Path 73" d="M748.4,559.4v3.633h1.412v.32H748V559.4Z" transform="translate(-636.424 -559.362)" fill="#fff"/>
        <path id="Path_74" data-name="Path 74" d="M771.941,562.655h-1.788l-.339.941H769.4l1.43-3.9h.452l1.43,3.9H772.3Zm-.885-2.466-.772,2.127h1.562Z" transform="translate(-653.796 -559.606)" fill="#fff"/>
        <path id="Path_75" data-name="Path 75" d="M801.439,559.2a1.816,1.816,0,0,1,1.826,1.2h-.471a1.367,1.367,0,0,0-1.355-.847,1.527,1.527,0,0,0-1.525,1.675,1.51,1.51,0,0,0,1.525,1.656,1.367,1.367,0,0,0,1.355-.847h.471a1.825,1.825,0,0,1-1.826,1.186,2.015,2.015,0,0,1,0-4.028Z" transform="translate(-678.231 -559.2)" fill="#fff"/>
        <path id="Path_76" data-name="Path 76" d="M835.952,559.558H834.3v1.468h1.487v.32H834.3v1.487h1.656v.32H833.9V559.2h2.052Z" transform="translate(-706.156 -559.2)" fill="#fff"/>
      </g>
    </g>
  </g>
</svg>
