<svg width="24" height="24" viewBox="0 0 24 24" fill="none" xmlns="http://www.w3.org/2000/svg">
<path d="M12 0C5.38345 0 0 5.38345 0 12C0 18.6166 5.38345 24 12 24C18.6166 24 24 18.6166 24 12C24 5.38345 18.6166 0 12 0ZM12 22.3448C6.29586 22.3448 1.65517 17.7041 1.65517 12C1.65517 6.29586 6.29586 1.65517 12 1.65517C17.7041 1.65517 22.3448 6.29586 22.3448 12C22.3448 17.7041 17.7041 22.3448 12 22.3448ZM16.5517 12C16.5517 12.2195 16.4645 12.43 16.3093 12.5852C16.1541 12.7404 15.9436 12.8276 15.7241 12.8276H8.27586C8.05637 12.8276 7.84587 12.7404 7.69067 12.5852C7.53547 12.43 7.44828 12.2195 7.44828 12C7.44828 11.7805 7.53547 11.57 7.69067 11.4148C7.84587 11.2596 8.05637 11.1724 8.27586 11.1724H15.7241C15.9436 11.1724 16.1541 11.2596 16.3093 11.4148C16.4645 11.57 16.5517 11.7805 16.5517 12Z" fill="#FFA500"/>
</svg>
