<svg width="14" height="14" viewBox="0 0 14 14" fill="none" xmlns="http://www.w3.org/2000/svg">
<path fill-rule="evenodd" clip-rule="evenodd" d="M11.5935 12.6003H2.40641C1.91194 12.6003 1.5468 12.1124 1.7333 11.6637C2.59863 9.58892 4.63155 8.40032 6.99959 8.40032C9.36834 8.40032 11.4013 9.58892 12.2666 11.6637C12.4531 12.1124 12.0879 12.6003 11.5935 12.6003ZM4.14153 4.20032C4.14153 2.65612 5.42416 1.40032 6.99975 1.40032C8.57607 1.40032 9.85798 2.65612 9.85798 4.20032C9.85798 5.74452 8.57607 7.00032 6.99975 7.00032C5.42416 7.00032 4.14153 5.74452 4.14153 4.20032ZM13.969 12.3452C13.4495 9.99389 11.8246 8.25859 9.68591 7.47109C10.8192 6.57719 11.4802 5.13169 11.2372 3.54899C10.9557 1.71289 9.39652 0.243584 7.51437 0.0293839C4.91624 -0.266716 2.71255 1.71429 2.71255 4.19999C2.71255 5.52299 3.3385 6.70179 4.31459 7.47109C2.1752 8.25859 0.551014 9.99389 0.0308168 12.3452C-0.157826 13.1999 0.545298 14 1.43778 14H12.562C13.4552 14 14.1583 13.1999 13.969 12.3452Z" fill="black"/>
</svg>
