<svg width="16" height="16" viewBox="0 0 16 16" fill="none" xmlns="http://www.w3.org/2000/svg">
<path d="M7.04606 0C3.16097 0 0 3.16097 0 7.04606C0 10.9314 3.16097 14.0921 7.04606 14.0921C10.9314 14.0921 14.0921 10.9314 14.0921 7.04606C14.0921 3.16097 10.9314 0 7.04606 0ZM7.04606 12.7913C3.87816 12.7913 1.30081 10.214 1.30081 7.04609C1.30081 3.87819 3.87816 1.30081 7.04606 1.30081C10.214 1.30081 12.7913 3.87816 12.7913 7.04606C12.7913 10.214 10.214 12.7913 7.04606 12.7913Z" fill="#A2A7AD"/>
<path d="M15.8095 14.8898L12.0805 11.1608C11.8264 10.9067 11.4149 10.9067 11.1608 11.1608C10.9067 11.4146 10.9067 11.8266 11.1608 12.0804L14.8898 15.8094C14.9501 15.8699 15.0218 15.9179 15.1007 15.9506C15.1796 15.9833 15.2642 16.0001 15.3496 16C15.435 16.0001 15.5196 15.9833 15.5986 15.9506C15.6775 15.9179 15.7491 15.8699 15.8095 15.8094C16.0636 15.5556 16.0636 15.1436 15.8095 14.8898Z" fill="#A2A7AD"/>
</svg>
