<svg width="50" height="32" viewBox="0 0 50 32" fill="none" xmlns="http://www.w3.org/2000/svg">
<path d="M40.616 13.4667C40.616 13.3333 40.6381 13.2 40.6381 13.0667C40.6381 5.84445 34.8913 0 27.8021 0C22.6877 0 18.2944 3.04444 16.2309 7.44444C15.3322 6.98889 14.3226 6.72222 13.2576 6.72222C9.9848 6.72222 7.25562 9.15556 6.73419 12.3333C2.80684 13.6889 0 17.4556 0 21.8889C0 27.4667 4.44878 32 9.92933 32H21.3009V23.1111H15.9535L24.8511 13.8111L33.7486 23.1H28.4012V31.9889H40.6381C45.6527 31.9889 49.7021 27.8222 49.7021 22.7222C49.7021 17.6222 45.6305 13.4778 40.616 13.4667Z" fill="#B5B5C7"/>
</svg>
