<svg width="18" height="18" viewBox="0 0 18 18" fill="none" xmlns="http://www.w3.org/2000/svg">
<path d="M9.00002 0C4.0376 0 0 4.0376 0 9.00002C0 13.9624 4.0376 18 9.00002 18C13.9624 18 18 13.9624 18 9.00002C18 4.0376 13.9624 0 9.00002 0ZM14.0301 6.63159L8.27821 12.3384C7.93987 12.6767 7.39851 12.6993 7.03761 12.3609L3.99249 9.58649C3.63159 9.24814 3.60903 8.68423 3.92482 8.32333C4.26317 7.96242 4.82708 7.93987 5.18798 8.27821L7.60152 10.4887L12.7444 5.34588C13.1053 4.98497 13.6692 4.98497 14.0301 5.34588C14.391 5.70678 14.391 6.27069 14.0301 6.63159Z" fill="#FFA500"/>
</svg>
